<svg width="300" height="24" fill="none" xmlns="http://www.w3.org/2000/svg"><path d="M40.266 3.233c-5.002 0-8.664 3.539-8.664 8.358 0 4.819 3.66 8.358 8.664 8.358 5.005 0 8.665-3.54 8.665-8.358-.063-4.82-3.662-8.358-8.665-8.358zm-.122 13.483c-2.99 0-4.942-2.074-4.942-5.125 0-3.052 1.952-5.125 4.942-5.125 3.05 0 4.942 2.013 4.942 5.125 0 3.052-1.953 5.125-4.942 5.125zm-25.807-5.492c1.77-.732 3.355-2.44 3.355-4.942 0-3.539-2.806-5.918-6.894-5.918H0v22.39h11.043c4.333 0 7.078-2.439 7.078-6.16-.062-2.38-1.648-4.577-3.784-5.37zM3.477 3.355h6.771c2.32 0 3.783 1.28 3.783 3.233s-1.464 3.173-3.783 3.173H3.476V3.355zm6.894 16.41H3.476v-6.892h6.895c2.502 0 4.089 1.343 4.089 3.476 0 2.136-1.587 3.417-4.089 3.417zM63.139 1.672c0-.808.655-1.464 1.463-1.464h16.766a1.464 1.464 0 010 2.93H64.602a1.465 1.465 0 01-1.463-1.466zm0 20.078c0-.808.655-1.464 1.463-1.464h16.766a1.464 1.464 0 010 2.93H64.602a1.467 1.467 0 01-1.463-1.466zm28.013-8.623H79.713a1.5 1.5 0 010-2.998l11.44-.008a1.5 1.5 0 011.5 1.49v.009a1.502 1.502 0 01-1.5 1.507zM267.3.367h-3.539v22.39h3.539V.368zM136.132 16.473c0 3.232-2.38 6.711-9.029 6.711-4.819 0-7.687-1.953-9.211-3.6l-.184-.183 2.136-2.502.244.244a9.779 9.779 0 007.138 3.05c3.843 0 5.246-1.77 5.246-3.477 0-2.38-2.746-3.05-5.918-3.843-3.783-.976-8.054-2.013-8.054-6.468 0-3.722 3.538-6.345 8.418-6.345 3.539 0 6.405 1.037 8.541 3.173l.183.183-2.135 2.44-.244-.244c-1.586-1.646-3.966-2.562-6.589-2.562-2.685 0-4.575 1.28-4.575 3.172 0 1.892 2.502 2.563 5.429 3.296 3.845.913 8.604 2.073 8.604 6.954zM240.76 0c-6.955 0-12.017 4.882-12.017 11.591 0 6.71 5.062 11.591 12.017 11.591 6.955 0 12.018-4.882 12.018-11.591C252.778 4.881 247.715 0 240.76 0zm0 20.132c-5.002 0-8.358-3.476-8.358-8.601 0-5.126 3.356-8.602 8.358-8.602 5.003 0 8.358 3.476 8.358 8.602 0 5.062-3.416 8.601-8.358 8.601zM287.616.367h-8.358v22.39h8.358c7.261 0 12.384-4.575 12.384-11.164C300 5.005 294.937.367 287.616.367zm0 19.4h-4.819V3.355h4.819c5.308 0 8.724 3.233 8.724 8.235 0 4.882-3.478 8.175-8.724 8.175zm-74.859-5.98c3.113-.426 5.919-2.562 5.919-6.588 0-4.089-3.112-6.832-7.688-6.832h-9.761v22.39h3.539v-8.664h4.209l5.979 8.665h4.209l-6.406-8.97zm-7.991-2.683V3.356h5.856c2.623 0 4.392 1.586 4.392 3.843 0 2.319-1.83 3.905-4.392 3.905h-5.856zM145.222.367h18.486v2.989h-7.505v19.4h-3.538v-19.4h-7.443V.366zm28.857 0h16.044v2.989h-12.505v6.405h12.262v2.99h-12.262v6.894h12.505v2.99h-16.044V.367z" fill="#fff"/><path d="M96.29.031c-6.955 0-12.018 4.882-12.018 11.591 0 6.71 5.063 11.591 12.018 11.591 6.955 0 12.017-4.882 12.017-11.591 0-6.71-5.062-11.591-12.017-11.591zm0 20.132c-5.003 0-8.358-3.476-8.358-8.601 0-5.126 3.355-8.602 8.358-8.602 5.002 0 8.358 3.476 8.358 8.602 0 5.062-3.416 8.601-8.358 8.601z" fill="#fff"/></svg>