<svg width="300" height="24" viewBox="0 0 300 24" fill="none" xmlns="http://www.w3.org/2000/svg">
<path d="M40.2664 3.23267C35.264 3.23267 31.6023 6.77158 31.6023 11.5907C31.6023 16.4099 35.2619 19.9488 40.2664 19.9488C45.2708 19.9488 48.9305 16.4099 48.9305 11.5907C48.868 6.77158 45.2687 3.23267 40.2664 3.23267ZM40.1436 16.7159C37.1542 16.7159 35.2016 14.6425 35.2016 11.5907C35.2016 8.53896 37.1542 6.46557 40.1436 6.46557C43.1933 6.46557 45.0856 8.47859 45.0856 11.5907C45.0856 14.6425 43.1329 16.7159 40.1436 16.7159Z" fill="white"/>
<path d="M14.3368 11.2243C16.1062 10.4916 17.6925 8.78455 17.6925 6.28233C17.6925 2.74341 14.8863 0.364014 10.7979 0.364014H0V22.7549H11.0435C15.3755 22.7549 18.1213 20.3152 18.1213 16.5931C18.0589 14.2137 16.4726 12.0174 14.3368 11.2243ZM3.47646 3.35544H10.2483C12.5673 3.35544 14.0308 4.63569 14.0308 6.58834C14.0308 8.54099 12.5673 9.76087 10.2483 9.76087H3.47646V3.35544ZM10.3711 19.7656H3.47646V12.873H10.3711C12.8733 12.873 14.4596 14.2157 14.4596 16.3495C14.4596 18.4853 12.8733 19.7656 10.3711 19.7656Z" fill="white"/>
<path d="M63.1387 1.67194C63.1387 0.864236 63.7944 0.208496 64.6021 0.208496H81.3682C82.1739 0.208496 82.8275 0.860073 82.8317 1.6657C82.8359 2.47756 82.178 3.13747 81.3682 3.13747H64.6021C63.7944 3.13747 63.1387 2.48173 63.1387 1.67194Z" fill="white"/>
<path d="M63.1387 21.7498C63.1387 20.9421 63.7944 20.2864 64.6021 20.2864H81.3682C82.1739 20.2864 82.8275 20.938 82.8317 21.7436C82.8359 22.5554 82.178 23.2153 81.3682 23.2153H64.6021C63.7944 23.2133 63.1387 22.5575 63.1387 21.7498Z" fill="white"/>
<path d="M91.1523 13.1271H79.7132C78.8743 13.1271 78.1978 12.438 78.2144 11.5991C78.2311 10.7831 78.8972 10.1294 79.7132 10.1294L91.1523 10.1211C91.9766 10.1211 92.6469 10.7852 92.6532 11.6116V11.6199C92.6573 12.4485 91.9849 13.1271 91.1523 13.1271Z" fill="white"/>
<path d="M267.3 0.366699H263.761V22.7576H267.3V0.366699Z" fill="white"/>
<path d="M136.132 16.4725C136.132 19.7054 133.752 23.184 127.103 23.184C122.284 23.184 119.416 21.2313 117.892 19.5847L117.708 19.4015L119.844 16.8993L120.088 17.1428C121.187 18.3024 123.566 20.1926 127.226 20.1926C131.069 20.1926 132.472 18.4231 132.472 16.7161C132.472 14.3367 129.726 13.6664 126.554 12.8733C122.771 11.8969 118.5 10.8602 118.5 6.40537C118.5 2.68326 122.038 0.0603027 126.918 0.0603027C130.457 0.0603027 133.323 1.097 135.459 3.23284L135.642 3.41603L133.507 5.85579L133.263 5.61223C131.677 3.9656 129.297 3.04964 126.674 3.04964C123.989 3.04964 122.099 4.3299 122.099 6.22218C122.099 8.11446 124.601 8.78477 127.528 9.51753C131.373 10.4314 136.132 11.5909 136.132 16.4725Z" fill="white"/>
<path d="M240.76 0C233.805 0 228.743 4.88162 228.743 11.591C228.743 18.3004 233.805 23.182 240.76 23.182C247.715 23.182 252.778 18.3004 252.778 11.591C252.778 4.88162 247.715 0 240.76 0ZM240.76 20.1323C235.758 20.1323 232.402 16.6558 232.402 11.5306C232.402 6.40543 235.758 2.92897 240.76 2.92897C245.763 2.92897 249.118 6.40543 249.118 11.5306C249.118 16.5933 245.702 20.1323 240.76 20.1323Z" fill="white"/>
<path d="M287.616 0.366699H279.258V22.7576H287.616C294.877 22.7576 300 18.182 300 11.5934C300 5.00476 294.937 0.366699 287.616 0.366699ZM287.616 19.7662H282.797V3.35604H287.616C292.924 3.35604 296.34 6.58894 296.34 11.5913C296.34 16.4729 292.862 19.7662 287.616 19.7662Z" fill="white"/>
<path d="M212.757 13.7875C215.87 13.3608 218.676 11.2249 218.676 7.19889C218.676 3.1104 215.564 0.366699 210.988 0.366699H201.227V22.7576H204.766V14.0935H208.975L214.954 22.7576H219.163L212.757 13.7875ZM204.766 11.1042V3.35604H210.622C213.245 3.35604 215.014 4.94231 215.014 7.19889C215.014 9.51792 213.184 11.1042 210.622 11.1042H204.766Z" fill="white"/>
<path d="M145.222 0.366699H163.708V3.35604H156.203V22.7555H152.665V3.35604H145.222V0.366699Z" fill="white"/>
<path d="M174.079 0.366699H190.123V3.35604H177.618V9.76148H189.88V12.7508H177.618V19.6455H190.123V22.6348H174.079V0.366699Z" fill="white"/>
<path d="M96.2897 0.0310059C89.3347 0.0310059 84.272 4.91263 84.272 11.622C84.272 18.3314 89.3347 23.213 96.2897 23.213C103.245 23.213 108.307 18.3314 108.307 11.622C108.307 4.91263 103.245 0.0310059 96.2897 0.0310059ZM96.2897 20.1633C91.2873 20.1633 87.9316 16.6868 87.9316 11.5616C87.9316 6.43644 91.2873 2.95998 96.2897 2.95998C101.292 2.95998 104.648 6.43644 104.648 11.5616C104.648 16.6243 101.232 20.1633 96.2897 20.1633Z" fill="white"/>
</svg>
